<?xml version="1.0" encoding="utf-8"?>
<!-- Generator: Adobe Illustrator 17.1.0, SVG Export Plug-In . SVG Version: 6.00 Build 0)  -->
<!DOCTYPE svg PUBLIC "-//W3C//DTD SVG 1.1//EN" "http://www.w3.org/Graphics/SVG/1.1/DTD/svg11.dtd">
<svg version="1.1" id="Laag_1" xmlns="http://www.w3.org/2000/svg" xmlns:xlink="http://www.w3.org/1999/xlink" x="0px" y="0px"
	 viewBox="0 0 80 65" enable-background="new 0 0 80 65" xml:space="preserve">
<g>
	<path fill="#FFFFFF" d="M29.6,54.7c-0.7,1.3-1.5,2.4-2.5,3.3c-1,0.9-2,1.7-3.1,2.3c-1.1,0.6-2.3,0.9-3.7,0.9h-0.9
		c-0.3,0-0.6-0.1-0.9-0.2c-1.2-0.2-2.3-0.5-3.3-1c-1.1-0.5-2-1.1-2.8-1.8c-0.8-0.7-1.4-1.4-1.9-2.2c-0.5-0.8-0.7-1.5-0.7-2.2
		c0-0.7,0.3-1.3,0.9-1.8c0.6-0.5,1.5-1,2.8-1.2l0.5-0.2l0.2-0.2c0.1,0,0.2,0,0.2,0c0.1,0,0.1,0,0.2,0l0.9-0.2l0.7-0.1
		c0.1,0,0.1,0,0.1-0.1c0-0.1,0.1-0.1,0.2-0.1c0.1,0,0.2,0,0.2,0c0.1,0,0.1,0,0.2,0l1.6-0.3l0.2,0.1c0.1,0,0.2,0,0.2,0
		c0.1,0,0.1,0,0.2,0l0.6-0.1l0.8,0.2h1.3c0.1,0.1,0.3,0.1,0.5,0.1c-0.2,0-0.3,0-0.4,0.1h-0.9c-0.1,0-0.4,0-0.8,0
		c-0.4,0-0.7,0.1-0.7,0.2c-0.1,0-0.1,0-0.1,0c0,0,0,0-0.1,0l0.1-0.1c-0.3,0.1-0.6,0.1-0.9,0.1c-0.3,0-0.6,0.1-0.9,0.2h-0.2
		c-0.1,0-0.4,0-0.7,0c-0.4,0-0.6,0.1-0.7,0.2h-0.1c-0.2,0-0.5,0-0.8,0.1c-0.3,0.1-0.5,0.1-0.6,0.2l-0.2,0.1h0.1L14.4,51h0.1
		l-0.3,0.3L14,51.4c0.7-0.2,1.3-0.4,2-0.4l0.3-0.1V51l0.4-0.1h0.5l0.7-0.1l0.9-0.1c0.1,0,0.2,0,0.2-0.1l0.2,0.1l0.4-0.1h0.2
		c0.4,0,0.9,0,1.3,0c0.4,0,0.9-0.1,1.3-0.1h2.2c0-0.1,0.1-0.1,0.2,0c0.1,0,0.2,0,0.2,0h0.6l0.3,0.1c0.9,0.1,1.8,0.2,2.7,0.1
		c0.9,0,1.8,0,2.6,0.1C30.9,52.1,30.3,53.5,29.6,54.7L29.6,54.7z M20.9,28.4c0,0.3,0,0.6-0.1,0.9c-0.6-0.9-0.9-2-1-3.3
		c-0.1-1.3-0.1-2.1-0.1-2.6c0-0.7,0-1.4,0.1-2.1c0.1-0.7,0.2-1.1,0.4-1.1c0.2,0.2,0.3,1,0.5,2.4c0.2,1.4,0.2,3.1,0.2,4.9V28.4
		L20.9,28.4z M19.9,32.8l-0.2,0.4l-0.1,0.6l-0.2,0.7v0.2h0.1l-0.1,0.2v-0.1l-0.1,0.4l-0.1,0.3l-0.4,2v0.1c-0.3,0.7-0.6,1.4-0.9,2.2
		c-0.4,0.7-0.7,1.4-1.1,2.1c-0.4,0.6-0.8,1.1-1.2,1.5c-0.4,0.4-0.8,0.6-1.2,0.6c-0.3,0-0.5-0.1-0.7-0.4c-0.2-0.3-0.3-0.6-0.4-1
		c-0.1-0.4-0.2-0.8-0.2-1.3c0-0.5,0-0.9,0-1.3c0-3.1,0.4-6,1.1-8.5c0.7-2.5,1.4-4.4,1.9-5.8c0,0.3,0.1,0.8,0.2,1.4
		c0.1,0.6,0.4,1.3,0.7,2c0.3,0.7,0.7,1.3,1.2,2c0.5,0.6,1.1,1.1,1.8,1.5V32.8L19.9,32.8z M78.8,22.4c0-0.8-0.2-1.5-0.5-2.2
		c-0.3-0.6-0.7-1.1-1.2-1.6c-0.2-0.3-0.5-0.5-0.8-0.7c-0.5-0.4-1.1-0.7-1.8-0.8c-0.2,0-0.4-0.1-0.5-0.1c-0.3-0.1-0.6-0.1-0.8-0.1
		l-0.1,0l0,0c-0.2,0-0.3,0-0.5,0c-1.2,0.1-2.2,0.4-3.1,1c-0.9,0.6-1.6,1.3-2.2,2.2c-0.6,0.8-1,1.8-1.2,2.8c-0.3,1-0.3,2.1-0.3,3.1
		c0.1,1.3,0.5,2.5,1,3.5c0.2,0.4,0.5,0.9,0.7,1.3l0,0l0.3,0.5h0l0.2,0.3h0c0.1,0.2,0.3,0.4,0.4,0.5c0.1,0.1,0.2,0.3,0.3,0.4l0.2,0.3
		c0.1,0.2,0.2,0.4,0.4,0.6c0.2,0.3,0.3,0.5,0.4,0.7c0.3,0.5,0.6,1.1,0.9,1.6c0.3,0.5,0.5,1.1,0.6,1.7v0.1l0.1,0.1v0.6l0.1-0.1
		c0,0.3,0,0.6-0.1,0.9c0,0.4-0.1,0.7-0.2,1c-0.1,0.3-0.2,0.6-0.3,0.9c0,0.1-0.1,0.2-0.1,0.2v-0.1l-0.3,0.5c0,0,0,0,0,0l-0.1,0.1v0
		c0,0-0.1,0.1-0.3,0.3c-0.1,0.1-0.2,0.2-0.3,0.2v0l-0.1,0.1l-1.5,0.4h0.4l0,0c-0.1,0-0.2,0-0.3,0c-0.1,0-0.3,0-0.4,0
		c-0.3-0.1-0.6-0.2-0.9-0.4c-0.2-0.1-0.3-0.2-0.3-0.3c0-0.2,0.1-0.6,0.2-1c0.2-0.7,0.4-1.3,0.5-1.8l0-0.1l0-0.2c0,0,0-0.1,0-0.1
		l0-0.2c0.1-0.1,0.1-0.2,0.1-0.3l0-0.1l0,0c0,0,0,0,0,0l0.1-0.5l0,0l0-0.2c0,0,0,0,0,0l0.1-0.3l-0.1-0.1c-0.1-0.1-0.2-0.2-0.3-0.3
		c-0.2-0.1-0.3-0.1-0.5,0c-0.1,0.1-0.2,0.2-0.2,0.3c0,0,0,0,0,0c-0.1,0-0.1,0-0.2,0.1l-0.1,0.1l0,0.2l0,0c0,0-0.2,0.1-0.1,0.3
		c-0.1,0-0.1,0-0.2,0.1l-0.2,0.1l0,0.1l-0.2,0.3c0,0-0.1,0.1-0.1,0.1c0,0,0,0-0.1,0l-0.1,0L64.9,39l-0.2,0.2c0,0-0.1,0.1-0.1,0.1
		l-0.2,0.2l0,0c-0.1,0.2-0.1,0.4-0.2,0.5l0,0c-0.2,0.4-0.5,0.7-0.8,1.1c-0.3,0.4-0.6,0.8-0.9,1.3c0,0,0,0,0,0c-0.3,0.3-0.7,0.7-1,1
		c-0.6,0.6-1.2,0.8-1.3,0.5c-0.2-0.6-0.3-1.2-0.3-1.9c-0.1-0.7-0.1-1.3-0.1-1.9c0-0.5,0-1,0-1.3c0-0.3,0-0.5,0-0.4
		c0.1-1.9,0.6-4.5,1.4-8c0.8-3.5,1.7-7.3,2.8-11.6c0.2-0.7,0.6-1.7,1.1-3.2c0.5-1.5,1-3,1.4-4.5c0.5-1.5,0.9-2.9,1.2-4.1
		c0.4-1.2,0.5-1.9,0.5-2c0.3-1,0.5-1.7,0.5-2.1c0-0.3-0.2-0.6-0.5-1c-0.4-0.4-1-0.6-1.9-0.6c-0.3,0-0.5,0-0.6,0.1
		c-0.1,0.1-0.3,0.2-0.4,0.3c-0.1,0.2-0.2,0.3-0.2,0.4c-0.1,0.3-0.3,0.9-0.7,2c-0.4,1-0.8,2.4-1.3,4c-0.5,1.6-1.1,3.5-1.8,5.7
		c-0.7,2.1-1.3,4.4-2,6.8c-1.6,5.5-2.6,9.9-3,13.1c0,0.4-0.1,0.8-0.1,1.1c0,0,0,0,0,0.1h0c0,0,0,0.1,0,0.1l-0.1,0v-0.1
		c-0.1,0.1-0.2,0.3-0.2,0.4c-0.1,0.2-0.2,0.4-0.3,0.7h0.1l-0.1,0.2h-0.1l-0.1,0.2l-0.1,0.1c0,0.1,0,0.1,0,0.1c0,0,0,0.1,0,0.1
		l-0.2,0.3v0.1l-0.1,0.2L55,37.9V38c-0.3,0.6-0.7,1.3-1,2c-0.4,0.7-0.8,1.4-1.2,2.1c0-0.2,0-0.4,0-0.6c0-0.2,0-0.4,0-0.6
		c0.3-1.6,0.6-3.2,1.1-4.8c0.4-1.5,0.8-2.9,1.1-4c0.4-1.5,0.7-2.8,1.1-3.8c0.3-1,0.6-1.9,0.9-2.6c0.2-0.7,0.4-1.2,0.6-1.6
		c0.1-0.4,0.3-0.8,0.4-1c0.2-0.3-0.3-0.9-1.3-1.6c-0.4-0.3-0.8-0.4-1-0.5c-0.2,0-0.4,0-0.6,0c-0.2,0.1-0.8,0.9-1.1,1.6
		c-0.3,0.7-0.6,1.6-1,2.6c-0.4,1.1-0.7,2.3-1.1,3.7c-0.4,1.4-0.7,2.8-1.1,4.4c-0.1,0.3-0.1,0.7-0.2,1c-0.1,0.3-0.1,0.7-0.2,1v0.1
		C50,36,49.5,36.9,49,37.8c-0.5,0.9-1,1.9-1.6,2.8c-0.3,0.4-0.6,0.9-0.9,1.3c-0.4,0.4-1,0.9-1.2,0.8c-0.2-0.1-0.3-0.5-0.3-1.1
		c-0.1-1-0.1-2,0-3c0.1-1,0.2-2,0.4-3c0.2-1,0.4-1.9,0.7-2.8c0.2-0.9,0.5-1.6,0.8-2.3c0.8-2,1.5-3.6,2.2-4.7
		c0.7-1.2,1.3-2.1,1.9-2.8c0.6-0.7,1.1-1.2,1.5-1.6c0.4-0.4,0.8-0.7,1-0.9c0.2-0.2,0.3-0.4,0.3-0.7c0-0.3-0.2-0.8-0.5-1.5
		c-0.4-0.7-0.8-1.1-1.2-1.1c-0.2,0-0.4,0.1-0.7,0.2c-0.3,0.1-0.9,0.5-1.7,1.2c-0.8,0.7-1.6,1.7-2.6,3c-0.9,1.3-1.8,2.8-2.7,4.6
		c-0.9,1.8-1.6,3.7-2.1,5.9c-0.3,1.2-0.5,2.4-0.6,3.7c-0.1,0.2-0.2,0.3-0.3,0.5h0.1l-0.2,0.2L41,36.8C41,36.8,41,36.9,41,36.9
		c0,0,0,0.1-0.1,0.1l-0.2,0.4l-0.3,0.5c0,0.1,0,0.1,0,0.1c0,0,0,0,0,0.1h0.1l-0.1,0.1l-0.1,0.2l-0.2,0.4c-0.8,1.4-1.4,2.4-1.8,3
		c-0.4,0.6-0.7,0.9-0.9,0.9c-0.1,0-0.2-0.1-0.2-0.2c0.8-3.4,1.4-6.3,1.9-8.6c0.5-2.4,1-4.4,1.4-6c0.5-1.6,0.9-3,1.2-3.9
		c0.3-1,0.6-1.7,0.8-2.2c0.2-0.5,0.3-0.9,0.5-1.1c0.1-0.2,0.2-0.5,0.2-0.8c0-0.4-0.4-0.8-1.1-1.2c-0.7-0.4-1.4-0.5-1.9-0.5
		c-0.4,0-0.8,0.1-1.1,0.3c-0.3,0.2-0.5,0.7-0.7,1.3c-0.2,0.7-0.4,1.6-0.7,2.7c-0.2,1.2-0.6,2.7-0.9,4.5c-0.1,0.4-0.3,1.1-0.5,2.1
		c-0.2,1-0.5,2.1-0.7,3.2c-0.2,1.1-0.4,2-0.6,2.9c-0.2,0.9-0.3,1.3-0.4,1.3v0.5l-0.2,0.3l-0.1-0.2l0,0c-0.1,0.1-0.2,0.2-0.2,0.4
		c-0.2,0.2-0.3,0.5-0.5,0.7l-0.1,0.2l-0.1-0.1L33,38.7c-0.1,0.1-0.2,0.2-0.2,0.2l-0.2,0.4l-0.2,0.2l-0.6,0.7l-0.3,0.3
		c-0.5,0.5-1.1,1.2-1.9,2c-0.8,0.8-1.5,1.2-2.1,1.2c-0.3,0-0.4-0.2-0.4-0.7c0-0.9,0.1-2,0.4-3.2c0.2-1.2,0.5-2.4,0.9-3.7
		c0.3-1.2,0.7-2.4,1-3.5c0.3-1.1,0.6-2.1,0.8-2.8c0.5-1.9,0.9-3.4,1.4-4.7c0.4-1.3,0.8-2.3,1.1-3.2c0.3-0.8,0.5-1.5,0.7-1.9
		c0.2-0.5,0.2-0.8,0.2-1.1c-0.3-0.4-0.5-0.8-0.7-1c-0.2-0.2-0.5-0.5-0.8-0.7c-0.3-0.2-0.7-0.3-1-0.3c-0.4,0-1.1,1.1-2.1,3.4
		c-0.7,1.6-1.4,3.9-2.1,6.9v0c0,0,0,0,0,0c-0.2,0.7-0.3,1.4-0.5,2.1l0,0l0,0c0,0.1-0.1,0.3-0.1,0.3c-0.2,0.3-0.4,0.6-0.7,0.7
		c-0.3,0.2-0.7,0.3-1,0.4c0.4-1.7,0.6-3.3,0.6-4.9c0-2.6-0.3-4.8-1-6.5c-0.7-1.7-1.8-2.6-3.5-2.6c-0.4,0-0.7,0.1-0.9,0.3
		c-0.2,0.2-0.4,0.3-0.5,0.5c-0.4-0.8-0.8-1.2-1.2-1.2c-0.3,0-0.5,0.1-0.8,0.2c-0.3,0.1-0.4,0.2-0.4,0.2h0.1c-0.4,0.3-1,1.1-1.8,2.3
		c-0.8,1.3-1.5,2.9-2.3,4.9c-0.8,2-1.4,4.2-2,6.8c-0.5,2.5-0.8,5.1-0.8,7.8v1.2c0,0.4,0,0.8,0.1,1.3l0,0l-0.2-0.1l-0.1,0.2l-0.2,0.2
		L9,41.5H8.8l-0.2,0.2L8.4,42c-0.5,0.4-1,1-1.6,1.6c-0.6,0.6-1.2,0.8-1.3,0.5c-0.2-0.6-0.3-1.2-0.3-1.9C5.1,41.5,5,40.9,5,40.3
		c0-0.5,0-1,0-1.3c0-0.3,0-0.5,0-0.4c0.1-1.9,0.6-4.5,1.4-8c0.8-3.5,1.7-7.3,2.8-11.6c0.2-0.7,0.6-1.7,1.1-3.2c0.5-1.5,1-3,1.4-4.5
		c0.5-1.5,0.9-2.9,1.2-4.1c0.4-1.2,0.5-1.9,0.5-2c0.3-1,0.5-1.7,0.5-2.1c0-0.3-0.2-0.6-0.5-1c-0.4-0.4-1-0.6-1.9-0.6
		c-0.3,0-0.5,0-0.6,0.1c-0.1,0.1-0.3,0.2-0.4,0.3c-0.1,0.2-0.2,0.3-0.2,0.4c-0.1,0.3-0.3,0.9-0.7,2c-0.4,1-0.8,2.4-1.3,4
		C7.9,10,7.3,11.9,6.7,14c-0.7,2.1-1.3,4.4-2,6.8c-1.6,5.5-2.6,9.9-3,13.1c-0.4,3.2-0.5,5.3-0.5,6.4c0,0.5,0,1.2,0.1,1.9
		c0.1,0.7,0.2,1.4,0.4,2.2c0.1,0.2,0.2,0.5,0.3,0.9c0.1,0.4,0.3,0.7,0.6,1.1c0.3,0.4,0.6,0.7,1,0.9c0.4,0.3,0.9,0.4,1.6,0.4
		c0.8,0,1.5-0.2,2.1-0.7c0.6-0.5,1-1,1.4-1.6c0.4-0.6,0.6-1.1,0.9-1.7c0.2-0.5,0.3-0.8,0.4-1c0.2,1,0.6,1.9,1.1,2.7
		c0.5,0.9,1.4,1.3,2.6,1.3c0.2,0,0.3,0,0.4-0.1h-0.2l-0.1-0.1v-0.1c0.2,0,0.3,0,0.4,0c0.1,0,0.2,0,0.4,0h0.1
		c0.1-0.1,0.2-0.1,0.3-0.1c0.1,0,0.2-0.1,0.3-0.2c0,0.1-0.1,0.1-0.2,0.2L15,46.5c0.1-0.1,0.3-0.1,0.4-0.2c0,0,0.1-0.1,0.1-0.1h0.1
		l-0.1,0.1l0.1,0.1l0.1-0.1c0,0.1-0.1,0.2-0.2,0.2c-0.1,0-0.1,0,0-0.1c0-0.1,0-0.1,0-0.1l-0.1,0.2h0.2c0.1,0,0.1,0,0.2-0.1v-0.4
		c0,0,0,0,0,0c0.1-0.1,0.1-0.1,0-0.1l0.2-0.1l0.1-0.1l0.1-0.1v0.1l0.1-0.1l-0.1,0.2l0.1-0.1c0,0,0,0.3,0.2,0.1
		c0.2-0.1,0.4-0.3,0.6-0.4h-0.1l0.2-0.1l0.3-0.3l0.2-0.3l0.4-0.3v-0.1l0.1-0.2l0.2-0.2c0.2-0.2,0.3-0.3,0.5-0.5
		c0.1-0.2,0.3-0.4,0.4-0.6h-0.1l0.4-0.7l0.1-0.1V42l0.2-0.2v-0.2l0.1-0.1l0.1-0.2l0.1-0.2c0.9-1.4,1.6-2.9,2.2-4.5
		c0.6-1.6,1-2.6,1.3-3.3c0.7-0.1,1.3-0.3,1.9-0.6c-0.3,1.3-0.5,2.6-0.7,4c-0.3,1.9-0.5,3.9-0.5,6c0,0.2,0,0.5,0.1,0.9
		c0.1,0.4,0.2,0.8,0.5,1.1c0.2,0.4,0.5,0.7,0.9,0.9c0.4,0.3,0.8,0.4,1.4,0.4c0.8,0,1.6-0.2,2.2-0.6c0.7-0.4,1.2-0.9,1.7-1.5
		c0.5-0.6,0.9-1.2,1.3-1.7c0.4-0.6,0.7-1.1,0.9-1.4l0.3-0.5c-0.3,1.3-0.6,2.5-0.9,3.7c-0.3,1.2-0.6,2.5-0.9,3.8
		c-2.4-0.2-4.6-0.2-6.7-0.2c-0.8,0-1.5,0-2.2,0c-0.7,0-1.4,0.1-2,0.1l-1.4,0.1c-0.1,0-0.1,0-0.1,0.1c0,0.1-0.1,0.1-0.1,0.1
		c-0.1,0-0.1,0-0.2-0.1c-0.1-0.1-0.1-0.1-0.2-0.1l-0.7,0.2h-0.5c-0.1,0-0.1,0-0.1,0c0,0-0.1,0-0.1,0c-0.1,0-0.1,0-0.2,0
		c-0.1,0-0.1,0-0.2,0l-0.9,0.1l-0.2,0.2L16,48.4c-0.1,0.1-0.2,0.1-0.3,0.2c-0.1,0.1-0.2,0.1-0.3,0.2c-0.1,0-0.2,0-0.2,0
		c-0.1,0-0.1,0-0.2,0c-0.1,0-0.2,0-0.2,0.1c0,0.1-0.1,0.1-0.2,0.1h-0.3c-0.1,0-0.2,0-0.2,0c0,0-0.1,0.1-0.2,0.2
		c-0.5,0.1-0.9,0.2-0.9,0.2c-0.1,0-0.2,0-0.2,0l-1.3,0.5c-1,0.5-1.8,1.1-2.3,1.6C8.4,52,8,52.7,7.9,53.7l-0.2,0.7l-0.1,0.1
		c0,0.1,0,0.2,0,0.3c0,0.1,0,0.2,0,0.3c0.1,0.1,0.1,0.2,0.1,0.3s0,0.2,0.1,0.2l-0.1,0.1c0,0.1,0,0.1,0,0.2c0,0.1,0,0.1,0,0.2H7.7
		c0.1,0.1,0.2,0.2,0.2,0.4c0,0.2,0.1,0.4,0.2,0.6c0.4,1.2,1.1,2.2,2,3.1c0.9,0.9,1.9,1.7,3,2.3c1.1,0.6,2.3,1.1,3.5,1.4
		c1.2,0.3,2.4,0.5,3.6,0.5c2.2,0,4.1-0.5,5.8-1.4c1.7-0.9,3.1-2,4.3-3.3c1.2-1.3,2.2-2.8,3-4.3c0.8-1.6,1.4-3,1.8-4.3
		c5.7,0.9,10.6,1.8,14.6,2.5c4,0.7,7.4,1.3,10.1,1.9c2.7,0.5,4.8,0.9,6.3,1.3c1.5,0.3,2.5,0.5,3.1,0.6c1.2,0,1.8-0.8,1.8-2.4
		c0-0.5-0.2-0.9-0.5-1.1c-0.2-0.1-0.3-0.2-0.4-0.2c-0.4-0.2-1.7-0.6-3.9-1c-2.2-0.5-4.9-1-8.2-1.5c-3.2-0.5-6.8-1.1-10.7-1.6
		c-3.9-0.5-7.7-0.9-11.5-1.2c0.1-0.4,0.2-0.9,0.3-1.3c0.1-0.4,0.2-0.8,0.3-1.2h0.3c0.8,0,1.5-0.3,2.1-0.9c0.6-0.6,1.1-1.3,1.5-2.1
		c0.4-0.8,0.7-1.6,1-2.4c0,0,0-0.1,0-0.1c0.1,0.7,0.2,1.4,0.4,2.3c0.1,0.4,0.2,0.9,0.5,1.4c0.2,0.5,0.6,0.9,1.2,1.3h0.1v0.1
		c0.2,0.1,0.4,0.2,0.6,0.4c0.2,0.1,0.5,0.2,0.5,0.2l0.1-0.1H45v-0.1h0.2c0.2,0,0.2,0,0.2,0.1l0.2-0.1l-0.1-0.1h0.7
		c-0.1,0-0.1,0-0.1,0c0,0,0,0-0.1,0l-0.2,0.2l-0.1-0.1c-0.1,0.1-0.2,0.2-0.3,0.2h-0.2l0.1,0.1c0.5,0,0.9-0.2,1.2-0.5
		c0.9-0.4,1.6-1,2.1-1.9c0.5-0.9,0.9-1.6,1.3-2.2v0.9c0,0.3,0.1,0.6,0.2,0.9l0.3,1c0.2,0.3,0.4,0.6,0.8,0.8c0,0.1,0,0.2,0,0.2
		c0,0.1,0.1,0.1,0.1,0.2h0.2c0.1,0.1,0.1,0.1,0.1,0c-0.1,0-0.1,0-0.1,0c0.4,0.1,0.8,0.1,1.1,0v-0.1c0.1-0.1,0.2-0.2,0.4-0.3
		c0.6-0.2,1-0.5,1.1-0.7c0.1-0.2,0.3-0.5,0.5-0.7c0.3-0.4,0.5-0.8,0.7-1.2c0.2-0.4,0.3-0.7,0.5-1c0.1-0.3,0.2-0.6,0.3-0.9
		c0,0.4,0,0.9,0.1,1.4c0.1,0.7,0.2,1.4,0.4,2.2c0.1,0.2,0.2,0.5,0.3,0.9c0.1,0.4,0.3,0.7,0.6,1.1c0.3,0.4,0.6,0.7,1,0.9
		c0.4,0.3,0.9,0.4,1.6,0.4c0.8,0,1.5-0.2,2.1-0.7c0.6-0.5,1-1,1.4-1.6c0,0,0,0,0,0l0,0c0.2,0.2,0.4,0.3,0.6,0.5
		c0.5,0.4,1.1,0.7,1.8,0.8c0.5,0.1,1,0.2,1.5,0.2c0.2,0,0.3,0,0.5,0c1.2-0.1,2.2-0.4,3.1-1c0.9-0.6,1.6-1.3,2.2-2.2
		c0.6-0.8,1-1.8,1.2-2.8c0.3-1,0.3-2.1,0.3-3.1c-0.1-0.6-0.2-1.2-0.3-1.8c-0.2-0.8-0.4-1.5-0.8-2.1c-0.2-0.4-0.4-0.8-0.7-1.2l0,0
		l-0.2-0.4h0c-0.3-0.4-0.5-0.7-0.8-1.1l0,0l-0.2-0.3c-0.1-0.2-0.3-0.4-0.4-0.6c-0.2-0.3-0.3-0.5-0.4-0.7c-0.3-0.5-0.6-1.1-0.9-1.6
		c-0.3-0.5-0.5-1.1-0.6-1.7v-0.1L69.2,26v-0.6l-0.1,0.1c0-0.3,0-0.6,0.1-1c0-0.4,0.1-0.7,0.2-1c0.1-0.3,0.2-0.6,0.3-0.9
		c0-0.1,0.1-0.2,0.1-0.2v0.1l0.3-0.5c0,0,0,0,0,0l0.1-0.1v0c0,0,0.1-0.1,0.3-0.3c0.1-0.1,0.2-0.2,0.3-0.2v0l0.1-0.1l1.5-0.4h-0.4
		l0,0c0.1,0,0.2,0,0.3,0c0.1,0,0.1,0,0.2,0l0.1,0l0.1,0l0,0c0.1,0,0.1,0,0.2,0c0.5,0.1,1,0.3,1.5,0.7c0.4,0.3,0.6,0.6,0.7,0.9
		c0,0.1,0,0.2,0,0.3c0,0.2-0.1,0.3-0.1,0.4c-0.2,0.7-0.4,1.3-0.5,1.7c-0.2,0.4-0.3,0.8-0.4,1.1c-0.1,0.2-0.2,0.5,0,0.9
		c0.1,0.3,0.5,0.6,1,1c0.6,0.5,1.1,0.6,1.6,0.4c0.2-0.1,0.4-0.2,0.5-0.4c0.2-0.2,0.5-0.8,0.9-1.6c0.3-0.8,0.6-1.9,0.8-3.1l0,0
		c0,0,0,0,0,0l0-0.1l0,0C78.8,22.6,78.8,22.5,78.8,22.4L78.8,22.4z"/>
</g>
</svg>
